<?xml version="1.0" encoding="UTF-8" standalone="no"?>
<!-- Generator: Adobe Illustrator 21.0.0, SVG Export Plug-In . SVG Version: 6.00 Build 0)  -->

<svg
   version="1.1"
   id="Layer_1"
   x="0px"
   y="0px"
   viewBox="0 0 189.5 45.4"
   style="enable-background:new 0 0 189.5 45.4;"
   xml:space="preserve"
   sodipodi:docname="logo.svg"
   inkscape:version="1.1.2 (0a00cf5339, 2022-02-04)"
   xmlns:inkscape="http://www.inkscape.org/namespaces/inkscape"
   xmlns:sodipodi="http://sodipodi.sourceforge.net/DTD/sodipodi-0.dtd"
   xmlns="http://www.w3.org/2000/svg"
   xmlns:svg="http://www.w3.org/2000/svg"><defs
   id="defs147" /><sodipodi:namedview
   id="namedview145"
   pagecolor="#ffffff"
   bordercolor="#666666"
   borderopacity="1.0"
   inkscape:pageshadow="2"
   inkscape:pageopacity="0.0"
   inkscape:pagecheckerboard="0"
   showgrid="false"
   inkscape:zoom="19.372032"
   inkscape:cx="108.4037"
   inkscape:cy="22.480864"
   inkscape:window-width="3840"
   inkscape:window-height="2225"
   inkscape:window-x="0"
   inkscape:window-y="55"
   inkscape:window-maximized="1"
   inkscape:current-layer="g142" />
<style
   type="text/css"
   id="style122">
	.st0{fill:#FF6B81;}
</style>
<g
   id="g142">
	<path
   class="st0"
   d="M47.7,19.7L39,4.6c-1.1-1.9-3.1-3-5.2-3H16.4c-2.2,0-4.1,1.1-5.2,3L2.4,19.7c-1.1,1.9-1.1,4.1,0,6l8.7,15.1   c1.1,1.9,3,3,5.2,3h17.4c2.1,0,4.1-1.1,5.2-3l8.7-15.1C48.8,23.8,48.8,21.6,47.7,19.7z M13.3,25.5c-0.1-0.1-0.2-0.2-0.2-0.4v-3.3   c0-0.2,0.1-0.3,0.2-0.4c0.1-0.1,0.2-0.2,0.4-0.2h5.7l-2.5,4.3h-3.2C13.5,25.7,13.4,25.6,13.3,25.5z M17.2,31.7L15.4,33   c-0.1,0.1-0.2,0.1-0.3,0.1C15,33,15,32.9,15,32.7l0.2-2.1c0-0.2,0.1-0.2,0.2-0.3c0.1-0.1,0.2-0.1,0.3,0l1.4,0.8   c0.1,0.1,0.2,0.2,0.2,0.3C17.4,31.6,17.4,31.7,17.2,31.7z M18.1,30.6c-0.2,0.1-0.3,0-0.4-0.1l-1.4-0.8c-0.1-0.1-0.2-0.2-0.2-0.3   c0-0.1,0-0.3,0.1-0.4l6.5-11.4c0.1-0.1,0.2-0.2,0.3-0.2c0.2,0,0.3,0,0.4,0.1l1.4,0.8c0.1,0.1,0.2,0.2,0.3,0.3c0,0.2,0,0.3-0.1,0.4   l-6.6,11.3C18.3,30.5,18.2,30.6,18.1,30.6z M22.7,25.7l2.5-4.3h1.4l2,4.3H22.7z M30.8,27c-0.2-0.1-0.9-1.4-2-3.7   c-0.7-1.6-1.4-3.2-2.1-4.8l-0.5-1.2c-0.7-1.5-1.2-2.6-1.4-3.3c-0.5-1.2-0.5-1.9-0.3-2.1c0.2-0.1,0.5,0.2,0.9,0.9   c0.3,0.4,0.8,1.2,1.4,2.4c0.6,1,1,1.7,1.3,2.1c0.8,1.2,2.2,3.7,4.2,7.6l0.3,0.6c0.2,0.3,0.2,0.5-0.1,0.9c-0.2,0.2-0.4,0.4-0.6,0.5   L31.8,27c-0.2,0.1-0.3,0.1-0.4,0.2C31.2,27.1,31,27.1,30.8,27z M32.6,29.9l-0.9-1.3c-0.1-0.2-0.1-0.3-0.1-0.4   c0.1-0.2,0.2-0.2,0.3-0.3l0.8-0.4c0.2-0.1,0.3-0.1,0.5,0s0.3,0.2,0.4,0.3l0.7,1.3c0.1,0.2,0.1,0.3,0,0.5c0,0.2-0.2,0.3-0.3,0.4   l-0.6,0.3c-0.2,0.1-0.3,0.1-0.5,0.1C32.8,30.2,32.7,30.1,32.6,29.9z M35.8,33.4c-0.1-0.1-0.2-0.2-0.3-0.3s-0.3-0.2-0.5-0.3   c-0.3-0.1-0.5-0.2-0.7-0.3s-0.5-0.3-0.6-0.5c-0.2-0.3-0.3-0.7-0.2-0.9c0-0.2,0.2-0.3,0.4-0.5l0,0c0.6-0.3,1-0.4,1.4-0.1   c0.3,0.2,0.5,0.5,0.6,1.1C36,32,36,32.4,36,32.9L35.8,33.4z M37,25.2c0,0.1,0,0.2-0.2,0.4c-0.1,0.1-0.2,0.2-0.4,0.2h-2.9   c0-0.2-0.1-0.4-0.2-0.5l-1-1.9c-0.4-0.8-0.8-1.5-1-2h5.1c0.2,0,0.3,0.1,0.4,0.2c0.1,0.1,0.2,0.2,0.2,0.4C37,22,37,25.2,37,25.2z"
   id="path124" />
	
<text
   xml:space="preserve"
   style="font-style:normal;font-weight:normal;font-size:40px;line-height:1.25;font-family:sans-serif;fill:#000000;fill-opacity:1;stroke:none"
   x="48.812687"
   y="36.704708"
   id="text13699"><tspan
     sodipodi:role="line"
     id="tspan13697"
     x="48.812687"
     y="36.704708"
     style="font-style:normal;font-variant:normal;font-weight:normal;font-stretch:normal;font-size:40px;font-family:'DejaVu Sans';-inkscape-font-specification:'DejaVu Sans, Normal';font-variant-ligatures:normal;font-variant-caps:normal;font-variant-numeric:normal;font-variant-east-asian:normal">EvalRS</tspan></text></g>
</svg>
